<svg width="20" height="22" viewBox="0 0 20 22" fill="none" xmlns="http://www.w3.org/2000/svg">
<path d="M13.5006 20.1933C13.5473 20.5433 13.4306 20.9167 13.1623 21.1617C13.0544 21.2698 12.9262 21.3556 12.785 21.4142C12.6439 21.4727 12.4926 21.5028 12.3398 21.5028C12.187 21.5028 12.0357 21.4727 11.8946 21.4142C11.7534 21.3556 11.6252 21.2698 11.5173 21.1617L6.83897 16.4833C6.7118 16.3589 6.6151 16.2068 6.55642 16.0388C6.49773 15.8708 6.47864 15.6916 6.50064 15.515V9.54167L0.912308 2.39C0.722851 2.14679 0.637364 1.83847 0.674527 1.53242C0.71169 1.22637 0.868482 0.947471 1.11064 0.756667C1.33231 0.593333 1.57731 0.5 1.83397 0.5H18.1673C18.424 0.5 18.669 0.593333 18.8906 0.756667C19.1328 0.947471 19.2896 1.22637 19.3268 1.53242C19.3639 1.83847 19.2784 2.14679 19.089 2.39L13.5006 9.54167V20.1933ZM4.21397 2.83333L8.83397 8.73667V15.1767L11.1673 17.51V8.725L15.7873 2.83333H4.21397Z" fill="white"/>
</svg>
